<svg width="187" height="233" viewBox="0 0 187 233" fill="none" xmlns="http://www.w3.org/2000/svg">
<rect x="16.7533" y="10.8001" width="135" height="187" rx="22.5" transform="rotate(4.04105 16.7533 10.8001)" stroke="black" stroke-width="5"/>
<line x1="36.4753" y1="36.2532" x2="128.313" y2="42.7412" stroke="black" stroke-width="5" stroke-linecap="round"/>
<line x1="35.0659" y1="56.2035" x2="126.904" y2="62.6916" stroke="black" stroke-width="5" stroke-linecap="round"/>
<line x1="33.7269" y1="75.1562" x2="125.565" y2="81.6443" stroke="black" stroke-width="5" stroke-linecap="round"/>
<line x1="32.388" y1="94.109" x2="124.226" y2="100.597" stroke="black" stroke-width="5" stroke-linecap="round"/>
<line x1="31.049" y1="113.062" x2="122.887" y2="119.55" stroke="black" stroke-width="5" stroke-linecap="round"/>
<line x1="29.6396" y1="133.012" x2="121.477" y2="139.5" stroke="black" stroke-width="5" stroke-linecap="round"/>
<line x1="28.3006" y1="151.965" x2="120.138" y2="158.453" stroke="black" stroke-width="5" stroke-linecap="round"/>
<line x1="26.9617" y1="170.918" x2="118.799" y2="177.406" stroke="black" stroke-width="5" stroke-linecap="round"/>
<line x1="65.7298" y1="6.24021" x2="64.4613" y2="24.1955" stroke="black" stroke-width="5" stroke-linecap="round"/>
<line x1="79.695" y1="7.22679" x2="78.4265" y2="25.182" stroke="black" stroke-width="5" stroke-linecap="round"/>
<line x1="92.1306" y1="8.10533" x2="90.8622" y2="26.0606" stroke="black" stroke-width="5" stroke-linecap="round"/>
<line x1="106.096" y1="9.0919" x2="104.827" y2="27.0471" stroke="black" stroke-width="5" stroke-linecap="round"/>
<mask id="path-14-inside-1_4_3" fill="white">
<path fill-rule="evenodd" clip-rule="evenodd" d="M166.778 46.0557C163.762 44.6824 160.204 46.0139 158.831 49.0296L155.516 56.3103L179.606 67.2805L182.922 59.9999C184.295 56.9841 182.963 53.4261 179.948 52.0528L166.778 46.0557ZM177.534 71.8309L153.444 60.8607L95.8375 187.362C94.4642 190.378 95.7957 193.936 98.8114 195.309L111.981 201.306C114.997 202.679 118.555 201.348 119.928 198.332L177.534 71.8309Z"/>
</mask>
<path fill-rule="evenodd" clip-rule="evenodd" d="M166.778 46.0557C163.762 44.6824 160.204 46.0139 158.831 49.0296L155.516 56.3103L179.606 67.2805L182.922 59.9999C184.295 56.9841 182.963 53.4261 179.948 52.0528L166.778 46.0557ZM177.534 71.8309L153.444 60.8607L95.8375 187.362C94.4642 190.378 95.7957 193.936 98.8114 195.309L111.981 201.306C114.997 202.679 118.555 201.348 119.928 198.332L177.534 71.8309Z" fill="black"/>
<path d="M155.516 56.3103L150.965 54.2381L148.893 58.7885L153.444 60.8607L155.516 56.3103ZM179.606 67.2805L177.534 71.8309L182.084 73.9031L184.156 69.3527L179.606 67.2805ZM182.922 59.9999L187.472 62.072L182.922 59.9999ZM177.534 71.8309L182.084 73.9031L184.156 69.3527L179.606 67.2805L177.534 71.8309ZM153.444 60.8607L155.516 56.3103L150.965 54.2381L148.893 58.7885L153.444 60.8607ZM95.8375 187.362L91.2871 185.29L95.8375 187.362ZM98.8114 195.309L100.884 190.759L98.8114 195.309ZM111.981 201.306L109.909 205.856L111.981 201.306ZM163.382 51.1018C163.61 50.5992 164.203 50.3773 164.706 50.6061L168.85 41.5053C163.322 38.9876 156.798 41.4286 154.281 46.9575L163.382 51.1018ZM160.066 58.3824L163.382 51.1018L154.281 46.9575L150.965 54.2381L160.066 58.3824ZM153.444 60.8607L177.534 71.8309L181.678 62.7301L157.588 51.7599L153.444 60.8607ZM178.371 57.9277L175.056 65.2084L184.156 69.3527L187.472 62.072L178.371 57.9277ZM177.875 56.6032C178.378 56.8321 178.6 57.4251 178.371 57.9277L187.472 62.072C189.99 56.5432 187.549 50.0201 182.02 47.5024L177.875 56.6032ZM164.706 50.6061L177.875 56.6032L182.02 47.5024L168.85 41.5053L164.706 50.6061ZM179.606 67.2805L155.516 56.3103L151.371 65.4111L175.462 76.3813L179.606 67.2805ZM100.388 189.434L157.994 62.9328L148.893 58.7885L91.2871 185.29L100.388 189.434ZM100.884 190.759C100.381 190.53 100.159 189.937 100.388 189.434L91.2871 185.29C88.7694 190.819 91.2104 197.342 96.7393 199.859L100.884 190.759ZM114.053 196.756L100.884 190.759L96.7393 199.859L109.909 205.856L114.053 196.756ZM115.377 196.26C115.149 196.763 114.556 196.984 114.053 196.756L109.909 205.856C115.438 208.374 121.961 205.933 124.478 200.404L115.377 196.26ZM172.983 69.7588L115.377 196.26L124.478 200.404L182.084 73.9031L172.983 69.7588Z" fill="black" mask="url(#path-14-inside-1_4_3)"/>
<path d="M114.376 200.748L97.2283 216.244L97.66 193.136L114.376 200.748Z" fill="white" stroke="black" stroke-width="5"/>
</svg>
